<svg
        version="1.1"
        xmlns="http://www.w3.org/2000/svg"
        width="100%"
        height="100%"
        viewBox="0 0 399 400"
>
    <path
            d="M0 0 C1.19125416 -0.00170885 2.38250831 -0.0034177 3.60986108 -0.00517833 C6.87560517 -0.00787874 10.14118593 -0.00172153 13.40691078 0.00837779 C16.94386557 0.01708662 20.48081397 0.01408692 24.01777649 0.01257324 C30.13228429 0.01152905 36.24674912 0.01775666 42.36124611 0.02904892 C51.2015675 0.04536453 60.04186831 0.0505181 68.88220312 0.0530249 C83.22813639 0.05739254 97.57404679 0.07067625 111.91996765 0.08963013 C125.84835191 0.10801311 139.77672994 0.12215776 153.7051239 0.13064575 C154.56495022 0.1311712 155.42477653 0.13169665 156.31065819 0.13223802 C160.6245365 0.13484826 164.93841485 0.13737563 169.25229323 0.13986182 C204.98992702 0.16056529 240.72751848 0.19741932 276.46513367 0.24050903 C276.46513367 29.61050903 276.46513367 58.98050903 276.46513367 89.24050903 C263.91151794 89.27023804 263.91151794 89.27023804 251.10429382 89.30056763 C224.31254165 89.3654042 197.52082487 89.43993871 170.72911582 89.52056064 C166.56608944 89.5330792 162.40306281 89.54551202 158.24003601 89.55789185 C157.41126821 89.56035784 156.58250041 89.56282383 155.72861843 89.56536455 C142.31734262 89.60506539 128.90605842 89.63782456 115.4947582 89.66800885 C101.72887365 89.69914606 87.96302468 89.73776516 74.19718015 89.78329909 C65.70604449 89.81115072 57.21493478 89.83319815 48.72376578 89.84777154 C42.89746291 89.85833083 37.07121038 89.87617141 31.24494548 89.89967607 C27.88578229 89.9130147 24.52675136 89.92212081 21.16755295 89.92472267 C17.51881567 89.92805468 13.87032146 89.94355809 10.22163391 89.96203613 C8.64280109 89.95913403 8.64280109 89.95913403 7.03207266 89.9561733 C-4.71238098 90.04488991 -14.31906266 91.90732512 -23.35517883 99.83816528 C-29.38018019 106.2416215 -31.75173452 113.54836237 -32.03486633 122.24050903 C-31.69124813 132.15174651 -28.63172756 139.06637054 -21.82002258 146.26004028 C-15.35159893 151.86600745 -8.01039032 154.35271203 0.46885395 154.37917423 C1.45764335 154.38464868 2.44643275 154.39012312 3.46518546 154.39576346 C4.54397773 154.39674156 5.62276999 154.39771967 6.73425293 154.39872742 C7.88600327 154.40366539 9.0377536 154.40860337 10.22440547 154.41369098 C13.41695289 154.42639007 16.6094768 154.43468308 19.80204189 154.44111764 C23.24644327 154.44913275 26.69082262 154.4628267 30.13520813 154.47583008 C36.10141115 154.49757708 42.06761641 154.51572806 48.03383827 154.53143501 C56.65998758 154.55414982 65.28611248 154.58229042 73.91224106 154.61175429 C87.90764435 154.65941044 101.90305763 154.70267999 115.89848328 154.74319458 C129.49354326 154.78255956 143.08859438 154.82398819 156.68363953 154.86819458 C157.94068774 154.87228099 157.94068774 154.87228099 159.22313086 154.87644995 C163.42730182 154.89012959 167.63147265 154.90384983 171.83564341 154.91759026 C206.71212276 155.03152399 241.58861991 155.13753274 276.46513367 155.24050903 C276.46513367 184.61050903 276.46513367 213.98050903 276.46513367 244.24050903 C263.85822327 244.27023804 263.85822327 244.27023804 250.99662781 244.30056763 C224.09634873 244.3653934 197.19610438 244.43992719 170.29586822 244.52056064 C166.11653179 244.53307932 161.93719512 244.54551212 157.75785828 244.55789185 C156.50982719 244.56159084 156.50982719 244.56159084 155.23658334 244.56536455 C141.76966647 244.60507392 128.30274122 244.63782932 114.8358 244.66800885 C101.01454973 244.6991374 87.19333496 244.73775281 73.37212461 244.78329909 C64.84567014 244.81116169 56.31924159 244.83320439 47.79275387 244.84777154 C41.94356464 244.85832441 36.09442566 244.87615826 30.24527431 244.89967607 C26.87205817 244.91302512 23.49897422 244.92212315 20.12572289 244.92472267 C16.46349868 244.92805031 12.80151779 244.943542 9.13934326 244.96203613 C7.55030476 244.95913403 7.55030476 244.95913403 5.92916447 244.9561733 C-5.47300926 245.04217449 -14.58916149 247.15743991 -23.35908508 254.83816528 C-30.98312175 262.96150914 -32.12681762 272.50356601 -32.08076477 283.21755981 C-32.09627129 285.10706612 -32.09627129 285.10706612 -32.11209106 287.03474426 C-32.13974186 290.45768579 -32.14336045 293.88026441 -32.14237118 297.30330133 C-32.14551848 300.89214181 -32.17117412 304.48082314 -32.1943512 308.06958008 C-32.23477653 314.85140278 -32.25522003 321.63312966 -32.26832509 328.4150542 C-32.28722236 337.5893295 -32.33731043 346.76343252 -32.38556862 355.93759155 C-32.46068104 370.37188836 -32.49439946 384.80597719 -32.53486633 399.24050903 C-62.23486633 399.24050903 -91.93486633 399.24050903 -122.53486633 399.24050903 C-122.65577544 367.19511871 -122.65577544 367.19511871 -122.68135071 353.65066528 C-122.69907413 344.33990457 -122.71978045 335.02922595 -122.76118469 325.71853638 C-122.79133955 318.93422222 -122.81050033 312.14997539 -122.81713182 305.36559606 C-122.82100055 301.78223777 -122.82991606 298.19907189 -122.8520565 294.61577606 C-122.96691574 275.26581816 -122.96214445 255.88187828 -116.34736633 237.42800903 C-115.89671814 236.12984253 -115.89671814 236.12984253 -115.43696594 234.80545044 C-111.27879645 223.24131044 -105.67874266 213.07541165 -97.90596008 203.51004028 C-96.33779335 201.39071102 -96.33779335 201.39071102 -96.63252258 199.20144653 C-97.69461401 196.89335174 -98.99012924 195.0733249 -100.53486633 193.05300903 C-119.16700673 166.98334758 -126.1550913 134.39561622 -121.47236633 102.80300903 C-116.11586743 70.62366535 -98.48675898 42.00775704 -72.09736633 22.67019653 C-50.65211058 7.53491123 -26.26832498 -0.14083243 0 0 Z "
            fill="#0F4889"
            transform="translate(122.53486633300781,0.759490966796875)"
    />
    <path
            d="M0 0 C80.52 0 161.04 0 244 0 C242.87341026 9.0127179 242.87341026 9.0127179 241.3984375 12.33203125 C241.07681641 13.06228516 240.75519531 13.79253906 240.42382812 14.54492188 C240.07771484 15.29322266 239.73160156 16.04152344 239.375 16.8125 C239.01599609 17.60076172 238.65699219 18.38902344 238.28710938 19.20117188 C233.49871688 29.49579349 227.32243782 38.34986741 220 47 C219.29617188 47.86238281 218.59234375 48.72476563 217.8671875 49.61328125 C204.41282139 65.37085241 186.44665323 76.68124361 166.9375 83.375 C166.27886963 83.60179443 165.62023926 83.82858887 164.94165039 84.06225586 C152.55582202 88.00205545 140.10144569 89.4505589 127.1484375 89.34057617 C125.74708067 89.33972666 124.34572252 89.34021133 122.94436646 89.34190369 C119.1973777 89.34275245 115.45068643 89.32531183 111.70376587 89.30418181 C107.76671928 89.28522484 103.82966331 89.28364979 99.89257812 89.28010559 C92.46277639 89.27084028 85.03310959 89.24630256 77.60336685 89.21605712 C67.5454643 89.17601551 57.48752396 89.16001359 47.42956161 89.14255047 C31.61960698 89.11447636 15.80993689 89.05467063 0 89 C0 59.63 0 30.26 0 0 Z "
            fill="#EE7E19"
            transform="translate(155,311)"
    />
</svg>
